<?xml version="1.0" encoding="UTF-8" standalone="no"?>
<svg width="56px" height="57px" viewBox="0 0 56 57" version="1.1" xmlns="http://www.w3.org/2000/svg" xmlns:xlink="http://www.w3.org/1999/xlink">
    <!-- Generator: Sketch 39.1 (31720) - http://www.bohemiancoding.com/sketch -->
    <title>Slice 1</title>
    <desc>Created with Sketch.</desc>
    <defs></defs>
    <g id="Page-1" stroke="none" stroke-width="1" fill="none" fill-rule="evenodd">
        <g id="noun_375493_cc" fill="#000000">
            <g id="Group">
                <path d="M28,0.75 C12.56,0.75 0,13.31 0,28.75 C0,44.19 12.56,56.75 28,56.75 C43.44,56.75 56,44.19 56,28.75 C56,13.31 43.44,0.75 28,0.75 L28,0.75 Z M28,53.75 C14.19,53.75 3,42.56 3,28.75 C3,14.94 14.19,3.75 28,3.75 C41.81,3.75 53,14.94 53,28.75 C53,42.56 41.81,53.75 28,53.75 L28,53.75 Z" id="Shape"></path>
                <path d="M19.17,18.85 C19.38,19.36 19.97,19.6 20.48,19.38 C20.99,19.17 21.23,18.58 21.01,18.07 C20.03,15.75 17.77,14.25 15.25,14.25 C11.8,14.25 9,17.06 9,20.51 C9,21.35 9.17,22.17 9.49,22.94 C9.65,23.32 10.02,23.55 10.41,23.55 C10.54,23.55 10.67,23.52 10.8,23.47 C11.31,23.26 11.55,22.67 11.33,22.16 C11.11,21.64 11,21.08 11,20.5 C11,18.15 12.91,16.24 15.25,16.24 C16.96,16.25 18.5,17.27 19.17,18.85 L19.17,18.85 Z" id="Shape"></path>
                <path d="M34.25,9.07 C30.8,9.07 28,11.88 28,15.32 C28,16.16 28.17,16.98 28.49,17.76 C28.65,18.14 29.02,18.37 29.41,18.37 C29.54,18.37 29.67,18.34 29.8,18.29 C30.31,18.07 30.55,17.49 30.33,16.98 C30.11,16.46 30,15.9 30,15.33 C30,12.98 31.91,11.08 34.25,11.08 C35.96,11.08 37.5,12.1 38.17,13.68 C38.38,14.19 38.97,14.43 39.48,14.21 C39.99,14 40.23,13.41 40.01,12.9 C39.04,10.57 36.77,9.07 34.25,9.07 L34.25,9.07 Z" id="Shape"></path>
                <path d="M36.39,23.75 C35.89,23.53 35.3,23.77 35.08,24.27 C33.85,27.15 31.28,29.44 28.22,30.4 C25.94,31.11 22.36,31.42 18.2,28.82 C17.73,28.53 17.11,28.67 16.82,29.14 C16.53,29.61 16.67,30.23 17.14,30.52 C19.66,32.09 22.35,32.9 25,32.9 C26.3,32.9 27.58,32.71 28.82,32.32 C32.43,31.19 35.46,28.48 36.92,25.07 C37.14,24.55 36.9,23.96 36.39,23.75 L36.39,23.75 Z" id="Shape"></path>
            </g>
        </g>
    </g>
</svg>